<svg width="40" height="40" viewBox="0 0 40 40" fill="none" xmlns="http://www.w3.org/2000/svg">
<rect x="0.5" y="0.5" width="39" height="39" rx="9.5" stroke="white" stroke-opacity="0.17"/>
<path d="M13.6667 5.90484C13.6667 5.90484 7.38675 5.34141 6.36406 6.3641C5.34136 7.38678 5.9049 13.6667 5.9049 13.6667" stroke="white" stroke-width="1.5" stroke-linecap="round" stroke-linejoin="round"/>
<path d="M13.6667 34.0953C13.6667 34.0953 7.38675 34.6588 6.36406 33.6361C5.34136 32.6133 5.9049 26.3335 5.9049 26.3335" stroke="white" stroke-width="1.5" stroke-linecap="round" stroke-linejoin="round"/>
<path d="M26.333 5.90484C26.333 5.90484 32.613 5.34141 33.6357 6.3641C34.6583 7.38678 34.0948 13.6667 34.0948 13.6667" stroke="white" stroke-width="1.5" stroke-linecap="round" stroke-linejoin="round"/>
<path d="M26.333 34.0953C26.333 34.0953 32.613 34.6588 33.6357 33.6361C34.6583 32.6133 34.0948 26.3335 34.0948 26.3335" stroke="white" stroke-width="1.5" stroke-linecap="round" stroke-linejoin="round"/>
<path d="M23.1836 16.8309L32.7656 7.24902" stroke="white" stroke-width="1.5" stroke-linecap="round" stroke-linejoin="round"/>
<path d="M16.8284 23.1704L6.7627 33.2694" stroke="white" stroke-width="1.5" stroke-linecap="round" stroke-linejoin="round"/>
<path d="M16.8289 16.8371L7.08887 7.10986" stroke="white" stroke-width="1.5" stroke-linecap="round" stroke-linejoin="round"/>
<path d="M23.1338 23.1704L33.5021 33.4556" stroke="white" stroke-width="1.5" stroke-linecap="round" stroke-linejoin="round"/>
</svg>
