<svg width="39" height="39" viewBox="0 0 39 39" fill="none" xmlns="http://www.w3.org/2000/svg">
<rect x="0.5" y="0.5" width="38" height="38" rx="8.5" stroke="white" stroke-opacity="0.17"/>
<path d="M22.3365 27.7092C22.3215 26.6377 21.5861 23.0896 22.3377 22.3374C23.0894 21.5854 26.6333 22.3231 27.7034 22.3385M32 32L22.8861 22.8801" stroke="white" stroke-width="1.5" stroke-linecap="round" stroke-linejoin="round"/>
<path d="M16.6635 27.7092C16.6785 26.6377 17.4139 23.0896 16.6623 22.3374C15.9107 21.5854 12.3668 22.3231 11.2967 22.3385M7 32L16.1139 22.8801" stroke="white" stroke-width="1.5" stroke-linecap="round" stroke-linejoin="round"/>
<path d="M11.2942 16.6675C12.3653 16.6811 15.9135 17.4139 16.6646 16.6596C17.4155 15.9054 16.6735 12.3543 16.6568 11.2817M16.1081 16.1041L7 7" stroke="white" stroke-width="1.5" stroke-linecap="round" stroke-linejoin="round"/>
<path d="M27.7058 16.6675C26.6347 16.6811 23.0865 17.4139 22.3354 16.6596C21.5845 15.9054 22.3266 12.3543 22.3433 11.2817M22.8919 16.1041L32 7" stroke="white" stroke-width="1.5" stroke-linecap="round" stroke-linejoin="round"/>
</svg>
