<svg width="84" height="84" viewBox="0 0 84 84" fill="none" xmlns="http://www.w3.org/2000/svg">
<path d="M43.5 26C43.5 25.1716 42.8284 24.5 42 24.5C41.1716 24.5 40.5 25.1716 40.5 26H43.5ZM42 42H40.5C40.5 42.3978 40.658 42.7794 40.9393 43.0607L42 42ZM48.9393 51.0607C49.5251 51.6464 50.4749 51.6464 51.0607 51.0607C51.6464 50.4749 51.6464 49.5251 51.0607 48.9393L48.9393 51.0607ZM80.5 42C80.5 63.263 63.263 80.5 42 80.5V83.5C64.9198 83.5 83.5 64.9198 83.5 42H80.5ZM42 80.5C20.737 80.5 3.5 63.263 3.5 42H0.5C0.5 64.9198 19.0802 83.5 42 83.5V80.5ZM3.5 42C3.5 20.737 20.737 3.5 42 3.5V0.5C19.0802 0.5 0.5 19.0802 0.5 42H3.5ZM42 3.5C63.263 3.5 80.5 20.737 80.5 42H83.5C83.5 19.0802 64.9198 0.5 42 0.5V3.5ZM40.5 26V42H43.5V26H40.5ZM40.9393 43.0607L48.9393 51.0607L51.0607 48.9393L43.0607 40.9393L40.9393 43.0607Z" fill="white"/>
</svg>
