<svg width="24" height="24" viewBox="0 0 24 24" fill="none" xmlns="http://www.w3.org/2000/svg">
<circle cx="12" cy="12" r="8" stroke="#646464" stroke-width="2"/>
<path d="M11.9078 9.89515C11.6071 9.89515 11.3578 9.79982 11.1598 9.60915C10.9691 9.41115 10.8738 9.16181 10.8738 8.86115C10.8738 8.55315 10.9691 8.30382 11.1598 8.11315C11.3578 7.92248 11.6071 7.82715 11.9078 7.82715C12.2085 7.82715 12.4541 7.92248 12.6448 8.11315C12.8428 8.30382 12.9418 8.55315 12.9418 8.86115C12.9418 9.15448 12.8428 9.40015 12.6448 9.59815C12.4541 9.79615 12.2085 9.89515 11.9078 9.89515ZM11.0278 16.0001C10.9765 16.0001 10.9361 15.9855 10.9068 15.9561C10.8775 15.9268 10.8628 15.8865 10.8628 15.8351V10.4451C10.8628 10.3938 10.8775 10.3535 10.9068 10.3241C10.9361 10.2948 10.9765 10.2801 11.0278 10.2801H12.7658C12.8171 10.2801 12.8575 10.2948 12.8868 10.3241C12.9161 10.3535 12.9308 10.3938 12.9308 10.4451V15.8351C12.9308 15.8865 12.9161 15.9268 12.8868 15.9561C12.8575 15.9855 12.8171 16.0001 12.7658 16.0001H11.0278Z" fill="#646464"/>
</svg>
