<svg width="1568" height="510" viewBox="0 0 1568 510" fill="none" xmlns="http://www.w3.org/2000/svg">
<path d="M804.834 191C804.834 202.506 795.506 211.833 784 211.833C772.494 211.833 763.167 202.506 763.167 191C763.167 179.494 772.494 170.167 784 170.167C795.506 170.167 804.834 179.494 804.834 191Z" stroke="white" stroke-width="2.5"/>
<path d="M789.647 186.96C789.44 185.372 787.616 182.804 784.335 182.804C780.524 182.804 778.92 184.915 778.594 185.971C778.087 187.383 778.188 190.285 782.656 190.602C788.241 190.998 790.478 191.657 790.193 195.075C789.909 198.493 786.796 199.231 784.335 199.152C781.875 199.073 777.85 197.943 777.693 194.903M783.945 180.579V182.812M783.945 199.131V201.412" stroke="white" stroke-width="2.5" stroke-linecap="round"/>
<path d="M626.489 263.727V287H622.239L612.114 272.352H611.943V287H607.023V263.727H611.341L621.386 278.364H621.591V263.727H626.489ZM638.349 287.341C636.584 287.341 635.058 286.966 633.77 286.216C632.49 285.458 631.501 284.405 630.804 283.057C630.107 281.701 629.759 280.129 629.759 278.341C629.759 276.538 630.107 274.962 630.804 273.614C631.501 272.258 632.49 271.205 633.77 270.455C635.058 269.697 636.584 269.318 638.349 269.318C640.115 269.318 641.637 269.697 642.918 270.455C644.205 271.205 645.198 272.258 645.895 273.614C646.592 274.962 646.94 276.538 646.94 278.341C646.94 280.129 646.592 281.701 645.895 283.057C645.198 284.405 644.205 285.458 642.918 286.216C641.637 286.966 640.115 287.341 638.349 287.341ZM638.372 283.591C639.175 283.591 639.846 283.364 640.384 282.909C640.921 282.447 641.327 281.818 641.599 281.023C641.88 280.227 642.02 279.322 642.02 278.307C642.02 277.292 641.88 276.386 641.599 275.591C641.327 274.795 640.921 274.167 640.384 273.705C639.846 273.242 639.175 273.011 638.372 273.011C637.562 273.011 636.88 273.242 636.327 273.705C635.781 274.167 635.368 274.795 635.088 275.591C634.815 276.386 634.679 277.292 634.679 278.307C634.679 279.322 634.815 280.227 635.088 281.023C635.368 281.818 635.781 282.447 636.327 282.909C636.88 283.364 637.562 283.591 638.372 283.591ZM666.778 269.545V273.182H656.267V269.545H666.778ZM658.653 265.364H663.494V281.636C663.494 282.083 663.563 282.432 663.699 282.682C663.835 282.924 664.025 283.095 664.267 283.193C664.517 283.292 664.805 283.341 665.131 283.341C665.358 283.341 665.585 283.322 665.812 283.284C666.04 283.239 666.214 283.205 666.335 283.182L667.097 286.784C666.854 286.86 666.513 286.947 666.074 287.045C665.634 287.152 665.1 287.216 664.472 287.239C663.305 287.284 662.282 287.129 661.403 286.773C660.532 286.417 659.854 285.864 659.369 285.114C658.884 284.364 658.646 283.417 658.653 282.273V265.364ZM669.932 287V269.545H674.625V272.591H674.807C675.125 271.508 675.659 270.689 676.409 270.136C677.159 269.576 678.023 269.295 679 269.295C679.242 269.295 679.504 269.311 679.784 269.341C680.064 269.371 680.311 269.413 680.523 269.466V273.761C680.295 273.693 679.981 273.633 679.58 273.58C679.178 273.527 678.811 273.5 678.477 273.5C677.765 273.5 677.129 273.655 676.568 273.966C676.015 274.269 675.576 274.693 675.25 275.239C674.932 275.784 674.773 276.413 674.773 277.125V287H669.932ZM687.503 287.33C686.389 287.33 685.397 287.136 684.526 286.75C683.654 286.356 682.965 285.777 682.457 285.011C681.957 284.239 681.707 283.277 681.707 282.125C681.707 281.155 681.885 280.341 682.241 279.682C682.598 279.023 683.082 278.492 683.696 278.091C684.31 277.689 685.007 277.386 685.787 277.182C686.575 276.977 687.401 276.833 688.264 276.75C689.279 276.644 690.098 276.545 690.719 276.455C691.34 276.356 691.791 276.212 692.071 276.023C692.351 275.833 692.491 275.553 692.491 275.182V275.114C692.491 274.394 692.264 273.837 691.81 273.443C691.363 273.049 690.726 272.852 689.901 272.852C689.029 272.852 688.336 273.045 687.821 273.432C687.306 273.811 686.965 274.288 686.798 274.864L682.321 274.5C682.548 273.439 682.995 272.523 683.662 271.75C684.329 270.97 685.188 270.371 686.241 269.955C687.302 269.53 688.529 269.318 689.923 269.318C690.893 269.318 691.821 269.432 692.707 269.659C693.601 269.886 694.393 270.239 695.082 270.716C695.779 271.193 696.329 271.807 696.73 272.557C697.132 273.299 697.332 274.189 697.332 275.227V287H692.741V284.58H692.605C692.325 285.125 691.95 285.606 691.48 286.023C691.01 286.432 690.446 286.754 689.787 286.989C689.128 287.216 688.366 287.33 687.503 287.33ZM688.889 283.989C689.601 283.989 690.23 283.848 690.776 283.568C691.321 283.28 691.749 282.894 692.06 282.409C692.37 281.924 692.526 281.375 692.526 280.761V278.909C692.374 279.008 692.166 279.098 691.901 279.182C691.643 279.258 691.351 279.33 691.026 279.398C690.7 279.458 690.374 279.515 690.048 279.568C689.723 279.614 689.427 279.655 689.162 279.693C688.594 279.777 688.098 279.909 687.673 280.091C687.249 280.273 686.92 280.519 686.685 280.83C686.45 281.133 686.332 281.511 686.332 281.966C686.332 282.625 686.571 283.129 687.048 283.477C687.533 283.818 688.147 283.989 688.889 283.989ZM705.929 276.909V287H701.088V269.545H705.702V272.625H705.906C706.293 271.61 706.94 270.807 707.849 270.216C708.759 269.617 709.861 269.318 711.156 269.318C712.368 269.318 713.425 269.583 714.327 270.114C715.228 270.644 715.929 271.402 716.429 272.386C716.929 273.364 717.179 274.53 717.179 275.886V287H712.338V276.75C712.346 275.682 712.073 274.848 711.52 274.25C710.967 273.644 710.205 273.341 709.236 273.341C708.584 273.341 708.009 273.481 707.509 273.761C707.016 274.042 706.63 274.451 706.349 274.989C706.077 275.519 705.937 276.159 705.929 276.909ZM735.517 274.523L731.085 274.795C731.009 274.417 730.847 274.076 730.597 273.773C730.347 273.462 730.017 273.216 729.608 273.034C729.206 272.845 728.725 272.75 728.165 272.75C727.415 272.75 726.782 272.909 726.267 273.227C725.752 273.538 725.494 273.955 725.494 274.477C725.494 274.894 725.661 275.246 725.994 275.534C726.328 275.822 726.9 276.053 727.71 276.227L730.869 276.864C732.566 277.212 733.831 277.773 734.665 278.545C735.498 279.318 735.915 280.333 735.915 281.591C735.915 282.735 735.578 283.739 734.903 284.602C734.237 285.466 733.32 286.14 732.153 286.625C730.994 287.102 729.657 287.341 728.142 287.341C725.831 287.341 723.991 286.86 722.619 285.898C721.256 284.928 720.456 283.61 720.222 281.943L724.983 281.693C725.127 282.398 725.475 282.936 726.028 283.307C726.581 283.67 727.29 283.852 728.153 283.852C729.002 283.852 729.684 283.689 730.199 283.364C730.722 283.03 730.987 282.602 730.994 282.08C730.987 281.64 730.801 281.28 730.438 281C730.074 280.712 729.513 280.492 728.756 280.341L725.733 279.739C724.028 279.398 722.759 278.807 721.926 277.966C721.1 277.125 720.688 276.053 720.688 274.75C720.688 273.629 720.991 272.663 721.597 271.852C722.21 271.042 723.07 270.417 724.176 269.977C725.29 269.538 726.593 269.318 728.085 269.318C730.29 269.318 732.025 269.784 733.29 270.716C734.563 271.648 735.305 272.917 735.517 274.523ZM743.94 287.33C742.827 287.33 741.834 287.136 740.963 286.75C740.092 286.356 739.402 285.777 738.895 285.011C738.395 284.239 738.145 283.277 738.145 282.125C738.145 281.155 738.323 280.341 738.679 279.682C739.035 279.023 739.52 278.492 740.134 278.091C740.747 277.689 741.444 277.386 742.224 277.182C743.012 276.977 743.838 276.833 744.702 276.75C745.717 276.644 746.535 276.545 747.156 276.455C747.777 276.356 748.228 276.212 748.509 276.023C748.789 275.833 748.929 275.553 748.929 275.182V275.114C748.929 274.394 748.702 273.837 748.247 273.443C747.8 273.049 747.164 272.852 746.338 272.852C745.467 272.852 744.774 273.045 744.259 273.432C743.743 273.811 743.402 274.288 743.236 274.864L738.759 274.5C738.986 273.439 739.433 272.523 740.099 271.75C740.766 270.97 741.626 270.371 742.679 269.955C743.74 269.53 744.967 269.318 746.361 269.318C747.33 269.318 748.259 269.432 749.145 269.659C750.039 269.886 750.83 270.239 751.52 270.716C752.217 271.193 752.766 271.807 753.168 272.557C753.569 273.299 753.77 274.189 753.77 275.227V287H749.179V284.58H749.043C748.762 285.125 748.387 285.606 747.918 286.023C747.448 286.432 746.884 286.754 746.224 286.989C745.565 287.216 744.804 287.33 743.94 287.33ZM745.327 283.989C746.039 283.989 746.668 283.848 747.213 283.568C747.759 283.28 748.187 282.894 748.497 282.409C748.808 281.924 748.963 281.375 748.963 280.761V278.909C748.812 279.008 748.603 279.098 748.338 279.182C748.08 279.258 747.789 279.33 747.463 279.398C747.137 279.458 746.812 279.515 746.486 279.568C746.16 279.614 745.865 279.655 745.599 279.693C745.031 279.777 744.535 279.909 744.111 280.091C743.687 280.273 743.357 280.519 743.122 280.83C742.887 281.133 742.77 281.511 742.77 281.966C742.77 282.625 743.009 283.129 743.486 283.477C743.971 283.818 744.584 283.989 745.327 283.989ZM765.412 287.341C763.624 287.341 762.086 286.962 760.798 286.205C759.518 285.439 758.533 284.379 757.844 283.023C757.162 281.667 756.821 280.106 756.821 278.341C756.821 276.553 757.166 274.985 757.855 273.636C758.552 272.28 759.541 271.223 760.821 270.466C762.101 269.701 763.624 269.318 765.389 269.318C766.912 269.318 768.245 269.595 769.389 270.148C770.533 270.701 771.438 271.477 772.105 272.477C772.772 273.477 773.139 274.652 773.207 276H768.639C768.51 275.129 768.17 274.428 767.616 273.898C767.071 273.36 766.355 273.091 765.469 273.091C764.719 273.091 764.063 273.295 763.503 273.705C762.95 274.106 762.518 274.693 762.207 275.466C761.897 276.239 761.741 277.174 761.741 278.273C761.741 279.386 761.893 280.333 762.196 281.114C762.507 281.894 762.942 282.489 763.503 282.898C764.063 283.307 764.719 283.511 765.469 283.511C766.022 283.511 766.518 283.398 766.957 283.17C767.404 282.943 767.772 282.614 768.06 282.182C768.355 281.742 768.548 281.216 768.639 280.602H773.207C773.132 281.936 772.768 283.11 772.116 284.125C771.473 285.133 770.582 285.92 769.446 286.489C768.31 287.057 766.965 287.341 765.412 287.341ZM785.591 269.545V273.182H775.08V269.545H785.591ZM777.466 265.364H782.307V281.636C782.307 282.083 782.375 282.432 782.511 282.682C782.648 282.924 782.837 283.095 783.08 283.193C783.33 283.292 783.617 283.341 783.943 283.341C784.17 283.341 784.398 283.322 784.625 283.284C784.852 283.239 785.027 283.205 785.148 283.182L785.909 286.784C785.667 286.86 785.326 286.947 784.886 287.045C784.447 287.152 783.913 287.216 783.284 287.239C782.117 287.284 781.095 287.129 780.216 286.773C779.345 286.417 778.667 285.864 778.182 285.114C777.697 284.364 777.458 283.417 777.466 282.273V265.364ZM788.744 287V269.545H793.585V287H788.744ZM791.176 267.295C790.456 267.295 789.839 267.057 789.324 266.58C788.816 266.095 788.562 265.515 788.562 264.841C788.562 264.174 788.816 263.602 789.324 263.125C789.839 262.64 790.456 262.398 791.176 262.398C791.896 262.398 792.509 262.64 793.017 263.125C793.532 263.602 793.79 264.174 793.79 264.841C793.79 265.515 793.532 266.095 793.017 266.58C792.509 267.057 791.896 267.295 791.176 267.295ZM805.349 287.341C803.584 287.341 802.058 286.966 800.77 286.216C799.49 285.458 798.501 284.405 797.804 283.057C797.107 281.701 796.759 280.129 796.759 278.341C796.759 276.538 797.107 274.962 797.804 273.614C798.501 272.258 799.49 271.205 800.77 270.455C802.058 269.697 803.584 269.318 805.349 269.318C807.115 269.318 808.637 269.697 809.918 270.455C811.205 271.205 812.198 272.258 812.895 273.614C813.592 274.962 813.94 276.538 813.94 278.341C813.94 280.129 813.592 281.701 812.895 283.057C812.198 284.405 811.205 285.458 809.918 286.216C808.637 286.966 807.115 287.341 805.349 287.341ZM805.372 283.591C806.175 283.591 806.846 283.364 807.384 282.909C807.921 282.447 808.327 281.818 808.599 281.023C808.88 280.227 809.02 279.322 809.02 278.307C809.02 277.292 808.88 276.386 808.599 275.591C808.327 274.795 807.921 274.167 807.384 273.705C806.846 273.242 806.175 273.011 805.372 273.011C804.562 273.011 803.88 273.242 803.327 273.705C802.781 274.167 802.368 274.795 802.088 275.591C801.815 276.386 801.679 277.292 801.679 278.307C801.679 279.322 801.815 280.227 802.088 281.023C802.368 281.818 802.781 282.447 803.327 282.909C803.88 283.364 804.562 283.591 805.372 283.591ZM821.929 276.909V287H817.088V269.545H821.702V272.625H821.906C822.293 271.61 822.94 270.807 823.849 270.216C824.759 269.617 825.861 269.318 827.156 269.318C828.368 269.318 829.425 269.583 830.327 270.114C831.228 270.644 831.929 271.402 832.429 272.386C832.929 273.364 833.179 274.53 833.179 275.886V287H828.338V276.75C828.346 275.682 828.073 274.848 827.52 274.25C826.967 273.644 826.205 273.341 825.236 273.341C824.584 273.341 824.009 273.481 823.509 273.761C823.016 274.042 822.63 274.451 822.349 274.989C822.077 275.519 821.937 276.159 821.929 276.909ZM851.517 274.523L847.085 274.795C847.009 274.417 846.847 274.076 846.597 273.773C846.347 273.462 846.017 273.216 845.608 273.034C845.206 272.845 844.725 272.75 844.165 272.75C843.415 272.75 842.782 272.909 842.267 273.227C841.752 273.538 841.494 273.955 841.494 274.477C841.494 274.894 841.661 275.246 841.994 275.534C842.328 275.822 842.9 276.053 843.71 276.227L846.869 276.864C848.566 277.212 849.831 277.773 850.665 278.545C851.498 279.318 851.915 280.333 851.915 281.591C851.915 282.735 851.578 283.739 850.903 284.602C850.237 285.466 849.32 286.14 848.153 286.625C846.994 287.102 845.657 287.341 844.142 287.341C841.831 287.341 839.991 286.86 838.619 285.898C837.256 284.928 836.456 283.61 836.222 281.943L840.983 281.693C841.127 282.398 841.475 282.936 842.028 283.307C842.581 283.67 843.29 283.852 844.153 283.852C845.002 283.852 845.684 283.689 846.199 283.364C846.722 283.03 846.987 282.602 846.994 282.08C846.987 281.64 846.801 281.28 846.438 281C846.074 280.712 845.513 280.492 844.756 280.341L841.733 279.739C840.028 279.398 838.759 278.807 837.926 277.966C837.1 277.125 836.688 276.053 836.688 274.75C836.688 273.629 836.991 272.663 837.597 271.852C838.21 271.042 839.07 270.417 840.176 269.977C841.29 269.538 842.593 269.318 844.085 269.318C846.29 269.318 848.025 269.784 849.29 270.716C850.563 271.648 851.305 272.917 851.517 274.523ZM871.756 269.545V273.182H860.983V269.545H871.756ZM863.449 287V268.284C863.449 267.019 863.695 265.97 864.188 265.136C864.688 264.303 865.369 263.678 866.233 263.261C867.097 262.845 868.078 262.636 869.176 262.636C869.919 262.636 870.597 262.693 871.21 262.807C871.831 262.92 872.294 263.023 872.597 263.114L871.733 266.75C871.544 266.689 871.309 266.633 871.028 266.58C870.756 266.527 870.475 266.5 870.188 266.5C869.475 266.5 868.979 266.667 868.699 267C868.419 267.326 868.278 267.784 868.278 268.375V287H863.449ZM881.974 287.341C880.209 287.341 878.683 286.966 877.395 286.216C876.115 285.458 875.126 284.405 874.429 283.057C873.732 281.701 873.384 280.129 873.384 278.341C873.384 276.538 873.732 274.962 874.429 273.614C875.126 272.258 876.115 271.205 877.395 270.455C878.683 269.697 880.209 269.318 881.974 269.318C883.74 269.318 885.262 269.697 886.543 270.455C887.83 271.205 888.823 272.258 889.52 273.614C890.217 274.962 890.565 276.538 890.565 278.341C890.565 280.129 890.217 281.701 889.52 283.057C888.823 284.405 887.83 285.458 886.543 286.216C885.262 286.966 883.74 287.341 881.974 287.341ZM881.997 283.591C882.8 283.591 883.471 283.364 884.009 282.909C884.546 282.447 884.952 281.818 885.224 281.023C885.505 280.227 885.645 279.322 885.645 278.307C885.645 277.292 885.505 276.386 885.224 275.591C884.952 274.795 884.546 274.167 884.009 273.705C883.471 273.242 882.8 273.011 881.997 273.011C881.187 273.011 880.505 273.242 879.952 273.705C879.406 274.167 878.993 274.795 878.713 275.591C878.44 276.386 878.304 277.292 878.304 278.307C878.304 279.322 878.44 280.227 878.713 281.023C878.993 281.818 879.406 282.447 879.952 282.909C880.505 283.364 881.187 283.591 881.997 283.591ZM904.906 279.568V269.545H909.747V287H905.099V283.83H904.918C904.524 284.852 903.868 285.674 902.952 286.295C902.043 286.917 900.933 287.227 899.622 287.227C898.455 287.227 897.429 286.962 896.543 286.432C895.656 285.902 894.963 285.148 894.463 284.17C893.971 283.193 893.721 282.023 893.713 280.659V269.545H898.554V279.795C898.562 280.826 898.838 281.64 899.384 282.239C899.929 282.837 900.66 283.136 901.577 283.136C902.16 283.136 902.705 283.004 903.213 282.739C903.721 282.466 904.13 282.064 904.44 281.534C904.759 281.004 904.914 280.348 904.906 279.568ZM918.46 276.909V287H913.619V269.545H918.233V272.625H918.438C918.824 271.61 919.472 270.807 920.381 270.216C921.29 269.617 922.392 269.318 923.688 269.318C924.9 269.318 925.956 269.583 926.858 270.114C927.759 270.644 928.46 271.402 928.96 272.386C929.46 273.364 929.71 274.53 929.71 275.886V287H924.869V276.75C924.877 275.682 924.604 274.848 924.051 274.25C923.498 273.644 922.737 273.341 921.767 273.341C921.116 273.341 920.54 273.481 920.04 273.761C919.547 274.042 919.161 274.451 918.881 274.989C918.608 275.519 918.468 276.159 918.46 276.909ZM939.957 287.284C938.632 287.284 937.431 286.943 936.355 286.261C935.287 285.572 934.438 284.561 933.81 283.227C933.188 281.886 932.878 280.242 932.878 278.295C932.878 276.295 933.2 274.633 933.844 273.307C934.488 271.973 935.344 270.977 936.412 270.318C937.488 269.652 938.666 269.318 939.946 269.318C940.923 269.318 941.738 269.485 942.389 269.818C943.048 270.144 943.579 270.553 943.98 271.045C944.389 271.53 944.7 272.008 944.912 272.477H945.06V263.727H949.889V287H945.116V284.205H944.912C944.685 284.689 944.363 285.17 943.946 285.648C943.537 286.117 943.003 286.508 942.344 286.818C941.692 287.129 940.897 287.284 939.957 287.284ZM941.491 283.432C942.272 283.432 942.931 283.22 943.469 282.795C944.014 282.364 944.431 281.761 944.719 280.989C945.014 280.216 945.162 279.311 945.162 278.273C945.162 277.235 945.018 276.333 944.73 275.568C944.442 274.803 944.026 274.212 943.48 273.795C942.935 273.379 942.272 273.17 941.491 273.17C940.696 273.17 940.026 273.386 939.48 273.818C938.935 274.25 938.522 274.848 938.241 275.614C937.961 276.379 937.821 277.265 937.821 278.273C937.821 279.288 937.961 280.186 938.241 280.966C938.529 281.739 938.942 282.345 939.48 282.784C940.026 283.216 940.696 283.432 941.491 283.432ZM959.653 263.727L959.21 280.023H955.051L954.597 263.727H959.653ZM957.131 287.295C956.381 287.295 955.737 287.03 955.199 286.5C954.661 285.962 954.396 285.318 954.403 284.568C954.396 283.826 954.661 283.189 955.199 282.659C955.737 282.129 956.381 281.864 957.131 281.864C957.85 281.864 958.483 282.129 959.028 282.659C959.574 283.189 959.85 283.826 959.858 284.568C959.85 285.068 959.718 285.527 959.46 285.943C959.21 286.352 958.881 286.682 958.472 286.932C958.062 287.174 957.616 287.295 957.131 287.295Z" fill="#FAFBFF"/>
<path d="M607.517 320.545H612.068L616.875 332.273H617.08L621.886 320.545H626.438V338H622.858V326.639H622.713L618.196 337.915H615.759L611.241 326.597H611.097V338H607.517V320.545ZM629.41 338V324.909H633.04V338H629.41ZM631.234 323.222C630.694 323.222 630.231 323.043 629.844 322.685C629.464 322.321 629.273 321.886 629.273 321.381C629.273 320.881 629.464 320.452 629.844 320.094C630.231 319.73 630.694 319.548 631.234 319.548C631.773 319.548 632.234 319.73 632.614 320.094C633.001 320.452 633.194 320.881 633.194 321.381C633.194 321.886 633.001 322.321 632.614 322.685C632.234 323.043 631.773 323.222 631.234 323.222ZM639.58 330.432V338H635.949V324.909H639.409V327.219H639.562C639.852 326.457 640.338 325.855 641.02 325.412C641.702 324.963 642.528 324.739 643.5 324.739C644.409 324.739 645.202 324.938 645.878 325.335C646.554 325.733 647.08 326.301 647.455 327.04C647.83 327.773 648.017 328.648 648.017 329.665V338H644.386V330.312C644.392 329.511 644.188 328.886 643.773 328.438C643.358 327.983 642.787 327.756 642.06 327.756C641.571 327.756 641.139 327.861 640.764 328.071C640.395 328.281 640.105 328.588 639.895 328.991C639.69 329.389 639.585 329.869 639.58 330.432ZM657.842 324.909V327.636H649.958V324.909H657.842ZM651.748 321.773H655.379V333.977C655.379 334.312 655.43 334.574 655.532 334.761C655.634 334.943 655.776 335.071 655.958 335.145C656.146 335.219 656.362 335.256 656.606 335.256C656.776 335.256 656.947 335.241 657.117 335.213C657.288 335.179 657.418 335.153 657.509 335.136L658.08 337.838C657.898 337.895 657.643 337.96 657.313 338.034C656.984 338.114 656.583 338.162 656.112 338.179C655.237 338.213 654.469 338.097 653.81 337.83C653.157 337.562 652.648 337.148 652.285 336.585C651.921 336.023 651.742 335.312 651.748 334.455V321.773ZM668.003 342.909C667.543 342.909 667.111 342.872 666.707 342.798C666.31 342.73 665.98 342.642 665.719 342.534L666.537 339.824C666.963 339.955 667.347 340.026 667.688 340.037C668.034 340.048 668.332 339.969 668.582 339.798C668.838 339.628 669.045 339.338 669.205 338.929L669.418 338.375L664.722 324.909H668.54L671.25 334.523H671.386L674.122 324.909H677.966L672.878 339.415C672.634 340.119 672.301 340.733 671.881 341.256C671.466 341.784 670.94 342.19 670.304 342.474C669.668 342.764 668.901 342.909 668.003 342.909ZM685.317 338.256C683.993 338.256 682.848 337.974 681.882 337.412C680.922 336.844 680.18 336.054 679.658 335.043C679.135 334.026 678.874 332.847 678.874 331.506C678.874 330.153 679.135 328.972 679.658 327.96C680.18 326.943 680.922 326.153 681.882 325.591C682.848 325.023 683.993 324.739 685.317 324.739C686.641 324.739 687.783 325.023 688.743 325.591C689.709 326.153 690.453 326.943 690.976 327.96C691.499 328.972 691.76 330.153 691.76 331.506C691.76 332.847 691.499 334.026 690.976 335.043C690.453 336.054 689.709 336.844 688.743 337.412C687.783 337.974 686.641 338.256 685.317 338.256ZM685.334 335.443C685.936 335.443 686.439 335.273 686.842 334.932C687.246 334.585 687.55 334.114 687.754 333.517C687.964 332.92 688.07 332.241 688.07 331.48C688.07 330.719 687.964 330.04 687.754 329.443C687.55 328.847 687.246 328.375 686.842 328.028C686.439 327.682 685.936 327.509 685.334 327.509C684.726 327.509 684.214 327.682 683.8 328.028C683.391 328.375 683.081 328.847 682.871 329.443C682.666 330.04 682.564 330.719 682.564 331.48C682.564 332.241 682.666 332.92 682.871 333.517C683.081 334.114 683.391 334.585 683.8 334.932C684.214 335.273 684.726 335.443 685.334 335.443ZM702.516 332.426V324.909H706.146V338H702.661V335.622H702.524C702.229 336.389 701.737 337.006 701.05 337.472C700.368 337.937 699.536 338.17 698.553 338.17C697.678 338.17 696.908 337.972 696.243 337.574C695.578 337.176 695.058 336.611 694.683 335.878C694.314 335.145 694.126 334.267 694.121 333.244V324.909H697.751V332.597C697.757 333.369 697.964 333.98 698.374 334.429C698.783 334.878 699.331 335.102 700.018 335.102C700.456 335.102 700.865 335.003 701.246 334.804C701.626 334.599 701.933 334.298 702.166 333.901C702.405 333.503 702.521 333.011 702.516 332.426ZM709.05 338V324.909H712.57V327.193H712.707C712.945 326.381 713.346 325.767 713.908 325.352C714.471 324.932 715.119 324.722 715.852 324.722C716.033 324.722 716.229 324.733 716.44 324.756C716.65 324.778 716.835 324.81 716.994 324.849V328.071C716.823 328.02 716.587 327.974 716.286 327.935C715.985 327.895 715.71 327.875 715.46 327.875C714.925 327.875 714.448 327.991 714.028 328.224C713.613 328.452 713.283 328.77 713.039 329.179C712.8 329.588 712.681 330.06 712.681 330.594V338H709.05ZM731.465 324.909V327.636H723.386V324.909H731.465ZM725.235 338V323.963C725.235 323.014 725.42 322.227 725.789 321.602C726.164 320.977 726.675 320.509 727.323 320.196C727.971 319.884 728.707 319.727 729.531 319.727C730.087 319.727 730.596 319.77 731.056 319.855C731.522 319.94 731.869 320.017 732.096 320.085L731.448 322.812C731.306 322.767 731.13 322.724 730.92 322.685C730.715 322.645 730.505 322.625 730.289 322.625C729.755 322.625 729.383 322.75 729.173 323C728.962 323.244 728.857 323.588 728.857 324.031V338H725.235ZM733.683 338V324.909H737.314V338H733.683ZM735.507 323.222C734.967 323.222 734.504 323.043 734.118 322.685C733.737 322.321 733.547 321.886 733.547 321.381C733.547 320.881 733.737 320.452 734.118 320.094C734.504 319.73 734.967 319.548 735.507 319.548C736.047 319.548 736.507 319.73 736.888 320.094C737.274 320.452 737.467 320.881 737.467 321.381C737.467 321.886 737.274 322.321 736.888 322.685C736.507 323.043 736.047 323.222 735.507 323.222ZM740.222 338V324.909H743.742V327.193H743.879C744.117 326.381 744.518 325.767 745.08 325.352C745.643 324.932 746.29 324.722 747.023 324.722C747.205 324.722 747.401 324.733 747.612 324.756C747.822 324.778 748.006 324.81 748.165 324.849V328.071C747.995 328.02 747.759 327.974 747.458 327.935C747.157 327.895 746.881 327.875 746.631 327.875C746.097 327.875 745.62 327.991 745.2 328.224C744.785 328.452 744.455 328.77 744.211 329.179C743.972 329.588 743.853 330.06 743.853 330.594V338H740.222ZM760.935 328.642L757.611 328.847C757.554 328.562 757.432 328.307 757.244 328.08C757.057 327.847 756.81 327.662 756.503 327.526C756.202 327.384 755.841 327.312 755.42 327.312C754.858 327.312 754.384 327.432 753.997 327.67C753.611 327.903 753.418 328.216 753.418 328.608C753.418 328.92 753.543 329.185 753.793 329.401C754.043 329.616 754.472 329.79 755.08 329.92L757.449 330.398C758.722 330.659 759.67 331.08 760.295 331.659C760.92 332.239 761.233 333 761.233 333.943C761.233 334.801 760.98 335.554 760.474 336.202C759.974 336.849 759.287 337.355 758.412 337.719C757.543 338.077 756.54 338.256 755.403 338.256C753.67 338.256 752.29 337.895 751.261 337.173C750.239 336.446 749.639 335.457 749.463 334.207L753.034 334.02C753.142 334.548 753.403 334.952 753.818 335.23C754.233 335.503 754.764 335.639 755.412 335.639C756.048 335.639 756.56 335.517 756.946 335.273C757.338 335.023 757.537 334.702 757.543 334.31C757.537 333.98 757.398 333.71 757.125 333.5C756.852 333.284 756.432 333.119 755.864 333.006L753.597 332.554C752.318 332.298 751.366 331.855 750.741 331.224C750.122 330.594 749.812 329.79 749.812 328.812C749.812 327.972 750.04 327.247 750.494 326.639C750.955 326.031 751.599 325.562 752.429 325.233C753.264 324.903 754.241 324.739 755.361 324.739C757.014 324.739 758.315 325.088 759.264 325.787C760.219 326.486 760.776 327.437 760.935 328.642ZM770.482 324.909V327.636H762.599V324.909H770.482ZM764.388 321.773H768.019V333.977C768.019 334.312 768.07 334.574 768.173 334.761C768.275 334.943 768.417 335.071 768.599 335.145C768.786 335.219 769.002 335.256 769.246 335.256C769.417 335.256 769.587 335.241 769.758 335.213C769.928 335.179 770.059 335.153 770.15 335.136L770.721 337.838C770.539 337.895 770.283 337.96 769.954 338.034C769.624 338.114 769.224 338.162 768.752 338.179C767.877 338.213 767.11 338.097 766.451 337.83C765.798 337.562 765.289 337.148 764.925 336.585C764.562 336.023 764.383 335.312 764.388 334.455V321.773ZM778.47 338V320.545H785.357C786.675 320.545 787.8 320.781 788.732 321.253C789.669 321.719 790.382 322.381 790.871 323.239C791.365 324.091 791.612 325.094 791.612 326.247C791.612 327.406 791.362 328.403 790.862 329.239C790.362 330.068 789.638 330.705 788.689 331.148C787.746 331.591 786.604 331.812 785.263 331.812H780.652V328.847H784.666C785.371 328.847 785.956 328.75 786.422 328.557C786.888 328.364 787.234 328.074 787.462 327.688C787.695 327.301 787.811 326.821 787.811 326.247C787.811 325.668 787.695 325.179 787.462 324.781C787.234 324.384 786.885 324.082 786.413 323.878C785.947 323.668 785.359 323.562 784.649 323.562H782.161V338H778.47ZM787.896 330.057L792.234 338H788.161L783.916 330.057H787.896ZM798.149 338L793.155 320.545H797.186L800.075 332.673H800.22L803.408 320.545H806.859L810.038 332.699H810.192L813.081 320.545H817.112L812.118 338H808.521L805.197 326.588H805.061L801.746 338H798.149ZM820.338 338H816.384L822.409 320.545H827.165L833.182 338H829.227L824.855 324.534H824.719L820.338 338ZM820.091 331.139H829.432V334.02H820.091V331.139ZM847.732 324.909V327.636H839.849V324.909H847.732ZM841.638 321.773H845.269V333.977C845.269 334.312 845.32 334.574 845.423 334.761C845.525 334.943 845.667 335.071 845.849 335.145C846.036 335.219 846.252 335.256 846.496 335.256C846.667 335.256 846.837 335.241 847.008 335.213C847.178 335.179 847.309 335.153 847.4 335.136L847.971 337.838C847.789 337.895 847.533 337.96 847.204 338.034C846.874 338.114 846.474 338.162 846.002 338.179C845.127 338.213 844.36 338.097 843.701 337.83C843.048 337.562 842.539 337.148 842.175 336.585C841.812 336.023 841.633 335.312 841.638 334.455V321.773ZM855.871 338.256C854.548 338.256 853.403 337.974 852.437 337.412C851.477 336.844 850.735 336.054 850.212 335.043C849.69 334.026 849.428 332.847 849.428 331.506C849.428 330.153 849.69 328.972 850.212 327.96C850.735 326.943 851.477 326.153 852.437 325.591C853.403 325.023 854.548 324.739 855.871 324.739C857.195 324.739 858.337 325.023 859.298 325.591C860.263 326.153 861.008 326.943 861.531 327.96C862.053 328.972 862.315 330.153 862.315 331.506C862.315 332.847 862.053 334.026 861.531 335.043C861.008 336.054 860.263 336.844 859.298 337.412C858.337 337.974 857.195 338.256 855.871 338.256ZM855.888 335.443C856.491 335.443 856.994 335.273 857.397 334.932C857.8 334.585 858.104 334.114 858.309 333.517C858.519 332.92 858.624 332.241 858.624 331.48C858.624 330.719 858.519 330.04 858.309 329.443C858.104 328.847 857.8 328.375 857.397 328.028C856.994 327.682 856.491 327.509 855.888 327.509C855.281 327.509 854.769 327.682 854.354 328.028C853.945 328.375 853.636 328.847 853.425 329.443C853.221 330.04 853.119 330.719 853.119 331.48C853.119 332.241 853.221 332.92 853.425 333.517C853.636 334.114 853.945 334.585 854.354 334.932C854.769 335.273 855.281 335.443 855.888 335.443ZM867.965 334.233L867.974 329.878H868.502L872.695 324.909H876.863L871.229 331.489H870.369L867.965 334.233ZM864.675 338V320.545H868.306V338H864.675ZM872.857 338L869.005 332.298L871.425 329.733L877.11 338H872.857ZM884.071 338.256C882.724 338.256 881.565 337.983 880.594 337.438C879.628 336.886 878.884 336.108 878.361 335.102C877.838 334.091 877.577 332.895 877.577 331.514C877.577 330.168 877.838 328.986 878.361 327.969C878.884 326.952 879.619 326.159 880.568 325.591C881.523 325.023 882.642 324.739 883.926 324.739C884.79 324.739 885.594 324.878 886.338 325.156C887.088 325.429 887.741 325.841 888.298 326.392C888.861 326.943 889.298 327.636 889.611 328.472C889.923 329.301 890.08 330.273 890.08 331.386V332.384H879.026V330.134H886.662C886.662 329.611 886.548 329.148 886.321 328.744C886.094 328.341 885.778 328.026 885.375 327.798C884.977 327.565 884.514 327.449 883.986 327.449C883.435 327.449 882.946 327.577 882.52 327.832C882.099 328.082 881.77 328.42 881.531 328.847C881.293 329.267 881.17 329.736 881.165 330.253V332.392C881.165 333.04 881.284 333.599 881.523 334.071C881.767 334.543 882.111 334.906 882.554 335.162C882.997 335.418 883.523 335.545 884.131 335.545C884.534 335.545 884.903 335.489 885.239 335.375C885.574 335.261 885.861 335.091 886.099 334.864C886.338 334.636 886.52 334.358 886.645 334.028L890.003 334.25C889.832 335.057 889.483 335.761 888.955 336.364C888.432 336.96 887.756 337.426 886.926 337.761C886.102 338.091 885.151 338.256 884.071 338.256ZM896.08 330.432V338H892.449V324.909H895.909V327.219H896.062C896.352 326.457 896.838 325.855 897.52 325.412C898.202 324.963 899.028 324.739 900 324.739C900.909 324.739 901.702 324.938 902.378 325.335C903.054 325.733 903.58 326.301 903.955 327.04C904.33 327.773 904.517 328.648 904.517 329.665V338H900.886V330.312C900.892 329.511 900.688 328.886 900.273 328.438C899.858 327.983 899.287 327.756 898.56 327.756C898.071 327.756 897.639 327.861 897.264 328.071C896.895 328.281 896.605 328.588 896.395 328.991C896.19 329.389 896.085 329.869 896.08 330.432ZM916.564 330.432V338H912.933V324.909H916.393V327.219H916.547C916.837 326.457 917.322 325.855 918.004 325.412C918.686 324.963 919.513 324.739 920.484 324.739C921.393 324.739 922.186 324.938 922.862 325.335C923.538 325.733 924.064 326.301 924.439 327.04C924.814 327.773 925.001 328.648 925.001 329.665V338H921.371V330.312C921.376 329.511 921.172 328.886 920.757 328.438C920.342 327.983 919.771 327.756 919.044 327.756C918.555 327.756 918.124 327.861 917.749 328.071C917.379 328.281 917.089 328.588 916.879 328.991C916.675 329.389 916.57 329.869 916.564 330.432ZM933.778 338.256C932.454 338.256 931.309 337.974 930.343 337.412C929.383 336.844 928.641 336.054 928.119 335.043C927.596 334.026 927.335 332.847 927.335 331.506C927.335 330.153 927.596 328.972 928.119 327.96C928.641 326.943 929.383 326.153 930.343 325.591C931.309 325.023 932.454 324.739 933.778 324.739C935.102 324.739 936.244 325.023 937.204 325.591C938.17 326.153 938.914 326.943 939.437 327.96C939.96 328.972 940.221 330.153 940.221 331.506C940.221 332.847 939.96 334.026 939.437 335.043C938.914 336.054 938.17 336.844 937.204 337.412C936.244 337.974 935.102 338.256 933.778 338.256ZM933.795 335.443C934.397 335.443 934.9 335.273 935.303 334.932C935.707 334.585 936.011 334.114 936.215 333.517C936.425 332.92 936.531 332.241 936.531 331.48C936.531 330.719 936.425 330.04 936.215 329.443C936.011 328.847 935.707 328.375 935.303 328.028C934.9 327.682 934.397 327.509 933.795 327.509C933.187 327.509 932.675 327.682 932.261 328.028C931.852 328.375 931.542 328.847 931.332 329.443C931.127 330.04 931.025 330.719 931.025 331.48C931.025 332.241 931.127 332.92 931.332 333.517C931.542 334.114 931.852 334.585 932.261 334.932C932.675 335.273 933.187 335.443 933.795 335.443ZM944.836 338L941.273 324.909H944.947L946.975 333.705H947.094L949.208 324.909H952.813L954.961 333.653H955.072L957.066 324.909H960.731L957.177 338H953.333L951.083 329.767H950.921L948.671 338H944.836Z" fill="#FAFBFF"/>
<path d="M606 342.773H961.208V344.409H606V342.773Z" fill="#FAFBFF"/>
<a href="https://app.bouldertech.fi/">
<rect fill="black" fill-opacity="0" y="-0.022728" width="355.208" height="29.0455"/>
</a>
</svg>
